<?xml version="1.0" encoding="UTF-8" standalone="no"?><!DOCTYPE svg PUBLIC "-//W3C//DTD SVG 1.1//EN" "http://www.w3.org/Graphics/SVG/1.1/DTD/svg11.dtd"><svg width="100%" height="100%" viewBox="0 0 600 600" version="1.1" xmlns="http://www.w3.org/2000/svg" xmlns:xlink="http://www.w3.org/1999/xlink" xml:space="preserve" xmlns:serif="http://www.serif.com/" style="fill-rule:evenodd;clip-rule:evenodd;stroke-linejoin:round;stroke-miterlimit:2;"><g><path d="M10.773,161.269c-5.859,5.851 -5.859,15.352 0,21.203l278.431,278.053c5.859,5.851 15.372,5.851 21.231,-0l21.231,-21.202c5.859,-5.851 5.859,-15.351 -0,-21.202l-278.431,-278.054c-5.859,-5.85 -15.372,-5.85 -21.231,0l-21.231,21.202Z"/><path d="M567.996,139.475c-5.859,-5.851 -15.372,-5.851 -21.231,0l-278.431,278.053c-5.859,5.851 -5.859,15.352 0,21.203l21.231,21.202c5.859,5.85 15.372,5.85 21.231,-0l278.431,-278.054c5.859,-5.851 5.859,-15.351 -0,-21.202l-21.231,-21.202Z"/></g></svg>