<?xml version="1.0" encoding="UTF-8" standalone="no"?><!DOCTYPE svg PUBLIC "-//W3C//DTD SVG 1.1//EN" "http://www.w3.org/Graphics/SVG/1.1/DTD/svg11.dtd"><svg width="100%" height="100%" viewBox="0 0 600 600" version="1.1" xmlns="http://www.w3.org/2000/svg" xmlns:xlink="http://www.w3.org/1999/xlink" xml:space="preserve" xmlns:serif="http://www.serif.com/" style="fill-rule:evenodd;clip-rule:evenodd;stroke-linejoin:round;stroke-miterlimit:2;"><g><path d="M161.269,589.227c5.851,5.859 15.352,5.859 21.203,-0l278.053,-278.431c5.851,-5.859 5.851,-15.372 -0,-21.231l-21.202,-21.231c-5.851,-5.859 -15.351,-5.859 -21.202,0l-278.054,278.431c-5.85,5.859 -5.85,15.372 0,21.231l21.202,21.231Z"/><path d="M139.475,32.004c-5.851,5.859 -5.851,15.372 0,21.231l278.053,278.431c5.851,5.859 15.352,5.859 21.203,-0l21.202,-21.231c5.85,-5.859 5.85,-15.372 -0,-21.231l-278.054,-278.431c-5.851,-5.859 -15.351,-5.859 -21.202,0l-21.202,21.231Z"/></g></svg>